<svg xmlns="http://www.w3.org/2000/svg" xmlns:xlink="http://www.w3.org/1999/xlink" width="187.26" height="78.871" viewBox="0 0 187.26 78.871">
  <defs>
    <linearGradient id="linear-gradient" x1="0.5" y1="0.008" x2="0.5" y2="0.962" gradientUnits="objectBoundingBox">
      <stop offset="0" stop-color="#2ca0c4"/>
      <stop offset="0.926" stop-color="#29569d"/>
      <stop offset="1" stop-color="#173d7a"/>
    </linearGradient>
  </defs>
  <g id="logo" transform="translate(-1393 -2155)">
    <g id="logo-2" data-name="logo" transform="translate(1209.083 1780.94)">
      <g id="Objects" transform="translate(179.78 370.594)">
        <g id="Group_3221" data-name="Group 3221" transform="translate(4.14 3.46)">
          <g id="Group_3220" data-name="Group 3220">
            <path id="Path_1478" data-name="Path 1478" d="M80.791,46.012,80.163,34.6a1.416,1.416,0,0,0-.332-2.794c-.024,0-.047.006-.071.006l-2.55-5.3a.922.922,0,0,0-.563-1.655.859.859,0,0,0-.35.071l-3.7-5.694A1.415,1.415,0,1,0,70.738,17.1l-5.38-4.6a.9.9,0,0,0,.13-.469.924.924,0,0,0-1.667-.552l-8.15-4.116a.881.881,0,0,0,.089-.391.926.926,0,0,0-1.839-.16L44.4,5.489a2.024,2.024,0,0,0-4.039-.19l-7.6,1.453a.923.923,0,0,0-1.821.219.937.937,0,0,0,.095.4l-8.162,4.1A.921.921,0,0,0,21.349,12.5l-5.388,4.6a1.413,1.413,0,1,0-1.839,2.141l-3.707,5.688a.867.867,0,0,0-.356-.071.926.926,0,0,0-.925.925.916.916,0,0,0,.362.73l-2.55,5.3c-.024,0-.047-.006-.071-.006A1.414,1.414,0,0,0,6.56,34.6L5.931,45.81a2.023,2.023,0,0,0,.237,4.033,2.511,2.511,0,0,0,.3-.03L9.793,60.3a1.393,1.393,0,0,0-.249.8,1.418,1.418,0,0,0,1.418,1.418c.012,0,.024-.006.042-.006l4.063,5.475a1.469,1.469,0,0,0-.018.16.926.926,0,0,0,.925.925c.024,0,.042-.006.059-.006l9.3,6.845a1.552,1.552,0,0,0-.042.338,1.413,1.413,0,0,0,2.485.925l8.5,2.752a2.073,2.073,0,0,0-.042.386,2.024,2.024,0,0,0,4.027.291l6.774-.024a1.415,1.415,0,0,0,2.794-.32c0-.047-.012-.089-.012-.136l9.128-2.942a1.412,1.412,0,0,0,2.473-.937,1.383,1.383,0,0,0-.047-.35l9.117-6.679a1.1,1.1,0,0,0,1.352-1.074,1.14,1.14,0,0,0-.059-.35l3.95-5.285h.024a1.418,1.418,0,0,0,1.418-1.418,1.445,1.445,0,0,0-.261-.819l3.28-10.285a2.277,2.277,0,0,0,.409.042,2.012,2.012,0,0,0,.19-4.016ZM76.55,26.7c.018,0,.036.006.053.006l2.331,5.433a1.375,1.375,0,0,0-.32.374c-1.139-.3-2.776-.73-4.431-1.163C75.168,29.422,76.082,27.613,76.55,26.7ZM74.338,61.161l-4.532.534-1.038-5.374L74.433,60.6a1.356,1.356,0,0,0-.1.516C74.332,61.125,74.338,61.143,74.338,61.161Zm-13.446,1.7a1.459,1.459,0,0,0,.148.623l-6.37,4.063A.924.924,0,0,0,53,68.1c0,.03.006.053.006.083l-9.022,1.566a1.407,1.407,0,0,0-2.788.006l-7.515-1.536a.727.727,0,0,0,.012-.113.924.924,0,0,0-1.667-.552l-6.37-4.063a1.377,1.377,0,0,0,.148-.623,1.418,1.418,0,0,0-1.418-1.418,1.436,1.436,0,0,0-.688.184l-4.217-5.688A1.045,1.045,0,0,0,19.7,55.3a1.067,1.067,0,0,0-1.068-1.068h0l-2.254-7.426a1.055,1.055,0,0,0-.2-1.951l.314-5.712a1.413,1.413,0,0,0,.469-2.568l1.766-5.78a.929.929,0,0,0,.73-.908.879.879,0,0,0-.071-.35L25.422,22.4a1.4,1.4,0,0,0,1.892-1.329,1.309,1.309,0,0,0-.024-.219l11.442-4.858a1.1,1.1,0,0,0,1.88-.285h5.475a1.1,1.1,0,0,0,1.88.285l11.809,5.012v.018a.926.926,0,0,0,.925.925.905.905,0,0,0,.178-.018l5.89,6.975A1.414,1.414,0,0,0,67.8,31.29a1.822,1.822,0,0,0,.314-.036l1.773,5.819a.921.921,0,0,0,.291,1.637l.338,6.157a1.055,1.055,0,0,0-.2,1.951l-2.254,7.426h-.006a1.067,1.067,0,0,0-1.068,1.068,1.045,1.045,0,0,0,.219.641L63,61.641a1.41,1.41,0,0,0-2.106,1.222Zm.943,1.335-.7,3.826h-6.11l6.394-4.057a1.662,1.662,0,0,0,.416.235Zm-8.411,4.686L51.4,73.053l-7.474-2.616c.006-.018.012-.036.018-.059l9.324-1.619a1.014,1.014,0,0,0,.156.124Zm-12.183,1.5-6.086,2.378-1.88-3.879a.928.928,0,0,0,.148-.119Zm-9.6-2.361H25.564l-.7-3.826a1.27,1.27,0,0,0,.427-.243ZM12.266,60.591l5.664-4.277-1.038,5.374-4.532-.534c0-.018.006-.036.006-.047a1.379,1.379,0,0,0-.1-.516Zm-4-27.5L12.794,31.9c.9,1.768,1.827,3.571,2.467,4.8a1.4,1.4,0,0,0-.486,1.062,1.423,1.423,0,0,0,.249.8l-2.29,2.313L8,34.054a1.416,1.416,0,0,0,.279-.836.493.493,0,0,0-.011-.131ZM15.8,36.415c-.629-1.2-1.518-2.942-2.4-4.674,1.815-.475,3.511-.919,4.5-1.174a.8.8,0,0,0,.249.166L16.4,36.373a1.176,1.176,0,0,0-.208-.018A1.114,1.114,0,0,0,15.8,36.415Zm.107,2.734-.32,5.706c-.024.006-.047.012-.065.018L13.09,41.379l2.378-2.408a1.262,1.262,0,0,0,.432.178Zm-.872,6.092a1.045,1.045,0,0,0-.219.641c0,.012.006.024.006.042l-6.7,1.4a2.064,2.064,0,0,0-.273-.629l4.81-4.87Zm-6.85,2.681,6.827-1.435a1.239,1.239,0,0,0,.249.249L13.488,52.1,7.942,48.776a1.981,1.981,0,0,0,.243-.854Zm7.622-.913,2.248,7.408a1.141,1.141,0,0,0-.273.261l-3.766-2.26Zm2.728,9.354a.584.584,0,0,0,.1.012,1.136,1.136,0,0,0,.38-.071L23.25,62.04a1.475,1.475,0,0,0-.2.386l-5.564-.652ZM17.254,24.107l7.568-2.123a1.031,1.031,0,0,0,.077.089L18.974,29.09a1.152,1.152,0,0,0-.213-.09Zm9.5-4.164L29.342,13.8,38.3,15.519,27.077,20.281a1.446,1.446,0,0,0-.321-.338ZM48.4,15.519,57.356,13.8l2.74,6.513a.706.706,0,0,0-.113.119Zm13.269,6.406L69.445,24.1l-1.352,4.371a1.558,1.558,0,0,0-.291-.03,1.41,1.41,0,0,0-.552.113Zm8.974,14.989a.977.977,0,0,0-.19-.024l-1.791-5.908A1.429,1.429,0,0,0,69,30.614c1.008.261,2.6.676,4.312,1.127-1.02,1.987-2.046,3.986-2.669,5.172Zm.237,1.708,2.728,2.764L71.182,44.88l-.065-.018-.338-6.186c.036-.019.071-.037.1-.055ZM67.695,56.3a1.067,1.067,0,0,0,.368.071.522.522,0,0,0,.1-.012l1.044,5.4-5.564.652a1.411,1.411,0,0,0-.208-.4Zm.937-1.892,2.26-7.4,1.791,5.409-3.766,2.26a.94.94,0,0,0-.285-.266Zm2.806-7.669a1.24,1.24,0,0,0,.249-.249l6.874,1.441c0,.03-.006.059-.006.089a2.141,2.141,0,0,0,.154.783l-5.5,3.3Zm7.242.6-6.8-1.429c0-.012.006-.024.006-.042a1.045,1.045,0,0,0-.219-.641l2.373-3.416L78.963,46.8a2.235,2.235,0,0,0-.283.547Zm-4.721-6.465-2.675-2.7a.916.916,0,0,0,.071-.362.9.9,0,0,0-.208-.575c.635-1.21,1.7-3.292,2.752-5.344l4.526,1.192a1.154,1.154,0,0,0-.012.142,1.416,1.416,0,0,0,.279.836Zm-.368-9.692c-1.7-.445-3.333-.872-4.389-1.145.006-.059.018-.119.018-.178a1.41,1.41,0,0,0-.575-1.133l1.382-4.466,5.712,1.6a.923.923,0,0,0,.273.575c-.488.946-1.425,2.8-2.421,4.754ZM71.71,19.546a1.383,1.383,0,0,0,.35-.047l3.755,5.771L70.2,23.7l1.287-4.17C71.562,19.534,71.633,19.546,71.71,19.546Zm-.783-.237-1.3,4.223L61.7,21.308l8.725-2.6a1.409,1.409,0,0,0,.505.6ZM64.439,12.95a.888.888,0,0,0,.13.012A.873.873,0,0,0,64.9,12.9l5.5,4.692a1.4,1.4,0,0,0-.107.528l-8.719,2.6a.967.967,0,0,0-.338-.457Zm-.54-.267L60.66,20.092l-2.693-6.406,5.842-1.115a.531.531,0,0,0,.091.112Zm-.362-.676-5.813,1.115L55.565,7.986ZM54.486,7.831a.969.969,0,0,0,.35.071c.012,0,.03-.006.042-.006l2.248,5.338-8.968,1.714a1,1,0,0,0-.13-.279C49.687,12.921,53.121,9.279,54.486,7.831ZM44.307,6.082l9.716,1.335c.006.006.006.012.012.018-1.376,1.459-4.834,5.125-6.477,6.857a1.136,1.136,0,0,0-.451-.1,1.022,1.022,0,0,0-.231.024c-.955-1.827-2.384-5.048-3.286-7.118a1.984,1.984,0,0,0,.717-1.021ZM42.374,7.523a1.949,1.949,0,0,0,.694-.13c.9,2.076,2.319,5.261,3.286,7.106a1.1,1.1,0,0,0-.326.6H40.671a1.1,1.1,0,0,0-.516-.741c.552-1.934,1.412-4.941,1.957-6.857a1.855,1.855,0,0,0,.262.022ZM32.7,7.375,40.387,5.9a2.034,2.034,0,0,0,1.145,1.429c-.546,1.916-1.406,4.929-1.957,6.857a1.051,1.051,0,0,0-.433.1c-1.643-1.738-5.1-5.4-6.477-6.857a.207.207,0,0,0,.035-.049Zm-.878.522c.012,0,.03.006.042.006a.859.859,0,0,0,.35-.071c1.364,1.447,4.8,5.089,6.465,6.845a.924.924,0,0,0-.13.279L29.58,13.241Zm-.688.089-2.159,5.137-5.813-1.115ZM22.9,12.571l5.842,1.115-2.521,6a1.381,1.381,0,0,0-.314-.036c-.018,0-.03.006-.047.006L22.8,12.683A.867.867,0,0,0,22.9,12.571Zm-1.1.329a.873.873,0,0,0,.332.065,1.065,1.065,0,0,0,.13-.012l3,6.851a1.4,1.4,0,0,0-.682.747l-8.173-2.438a1.445,1.445,0,0,0-.107-.528Zm-5.518,5.81,8.209,2.45a1.427,1.427,0,0,0,.047.285l-7.456,2.088-1.3-4.223A1.458,1.458,0,0,0,16.282,18.71Zm-1.637.789a1.347,1.347,0,0,0,.35.047,1.309,1.309,0,0,0,.219-.024l1.287,4.17L10.89,25.264Zm-3.677,6.37,5.712-1.6,1.477,4.775a.928.928,0,0,0-.558.848.885.885,0,0,0,.012.125c-1.05.273-2.746.718-4.5,1.174-1-1.957-1.94-3.808-2.414-4.751a.888.888,0,0,0,.27-.571Zm-.878.836c.018,0,.042-.006.059-.006.463.919,1.382,2.723,2.367,4.65-1.655.433-3.3.866-4.431,1.163a1.487,1.487,0,0,0-.32-.374ZM7.135,34.618a1.359,1.359,0,0,0,.409-.154l4.763,6.857L7.437,46.25a2.053,2.053,0,0,0-.919-.427ZM10.979,59.7h-.024a1.385,1.385,0,0,0-.676.178L7.035,49.648a2.035,2.035,0,0,0,.558-.386L13.3,52.685ZM13.826,53l3.755,2.248c0,.018-.006.036-.006.053a1.139,1.139,0,0,0,.1.451l-5.742,4.336a1.318,1.318,0,0,0-.368-.255Zm2,14.241a.855.855,0,0,0-.433.2l-3.784-5.077a1.4,1.4,0,0,0,.6-.611l4.567.534Zm.593.1.967-4.994L23,63.011a1.41,1.41,0,0,0,1.275,1.257l.682,3.749H16.881a.919.919,0,0,0-.463-.67ZM25.6,75.372l-8.962-6.578a1.872,1.872,0,0,0,.13-.172H25.06l1.151,6.311a1.421,1.421,0,0,0-.611.439Zm1.21-.522-1.139-6.228h6.323l.071.089-4.846,6.228A1.523,1.523,0,0,0,26.81,74.85Zm.913.427L32.6,69.014a.365.365,0,0,0,.083.006L34.6,72.976l-6.655,2.6a2.358,2.358,0,0,0-.222-.3Zm8.749,4.093-8.423-2.717a1.466,1.466,0,0,0,.065-.4.592.592,0,0,0-.012-.1l6.75-2.639,2.438,5.018A2.081,2.081,0,0,0,36.472,79.37Zm1.785-1.085a1.773,1.773,0,0,0-.4.042L35.422,73.3l6.127-2.4a1.428,1.428,0,0,0,.243.219l-3.013,7.236a2.133,2.133,0,0,0-.522-.07Zm8.773,1.7-6.768.024a2.036,2.036,0,0,0-.925-1.412l3.019-7.248a1.773,1.773,0,0,0,.249.024,1.421,1.421,0,0,0,.4-.058l4.484,7.9a1.352,1.352,0,0,0-.454.772Zm1.388-1.133a1.425,1.425,0,0,0-.421.071l-4.478-7.889a1.03,1.03,0,0,0,.089-.077L51.14,73.6l-2.562,5.273a.736.736,0,0,0-.16-.019Zm1.216.706a1.448,1.448,0,0,0-.486-.5L51.7,73.794l6.88,2.414c0,.018-.006.03-.006.047a1.241,1.241,0,0,0,.065.4Zm9.1-3.938-6.768-2.373,2.052-4.223c.03,0,.053-.006.083-.006l4.876,6.264a1.26,1.26,0,0,0-.239.339Zm1.151-.771a1.523,1.523,0,0,0-.409.089L54.63,68.71a.936.936,0,0,0,.071-.089h6.323Zm1.21.522a1.386,1.386,0,0,0-.611-.445l1.151-6.311h8.1a1.261,1.261,0,0,0,.184.279Zm8.541-7.355h-7.89l.682-3.749A1.4,1.4,0,0,0,63.7,63.011l5.611-.658.931,4.816a1.11,1.11,0,0,0-.6.848ZM71.42,67.3a1.035,1.035,0,0,0-.575-.231l-.925-4.781,4.567-.534a1.432,1.432,0,0,0,.605.611Zm3.345-7.207-5.742-4.336a1.046,1.046,0,0,0,.1-.451c0-.018-.006-.036-.006-.053L72.873,53l2.26,6.833a1.41,1.41,0,0,0-.368.26Zm1.655-.219a1.434,1.434,0,0,0-.676-.178H75.72L73.4,52.685l5.63-3.375a1.991,1.991,0,0,0,.587.48Zm2.972-13.488-5-5.065,4.763-6.857a1.359,1.359,0,0,0,.409.154l.629,11.412a2.038,2.038,0,0,0-.8.355Z" transform="translate(-4.14 -3.46)" fill="url(#linear-gradient)"/>
            <g id="Group_3219" data-name="Group 3219" transform="translate(27.023 18.631)">
              <path id="Path_1479" data-name="Path 1479" d="M49.7,54.289l12.539,7.23,12.533-7.23L62.239,34.87ZM63.49,39.123,73,53.868l-9.51,5.487Z" transform="translate(-49.7 -34.87)" fill="#fff"/>
              <path id="Path_1480" data-name="Path 1480" d="M49.7,72.26,62.233,89.342,74.766,72.26,62.239,79.834Zm13.79,8.28,6.56-3.962-6.56,8.939Z" transform="translate(-49.7 -50.083)" fill="#fff"/>
            </g>
          </g>
        </g>
      </g>
    </g>
    <g id="Group_1" data-name="Group 1" transform="translate(0 -0.68)">
      <path id="Path_2" data-name="Path 2" d="M1.12,0H5.04V-7.84L7.72,0H11l2.66-7.78V0h3.92V-14.1H12.86L9.4-4.94,5.86-14.1H1.12ZM30.84-14.1H21.82V0h9.02V-3.14h-5.1V-5.68h4.5V-8.66h-4.5v-2.3h5.1Zm9.52,0H34.78V0h5.58c4.5,0,7.36-2.98,7.36-7.06C47.72-11.2,44.86-14.1,40.36-14.1ZM38.7-3.46V-10.7h1.36a3.355,3.355,0,0,1,3.68,3.64,3.335,3.335,0,0,1-3.68,3.6ZM65.46-7.1a7.045,7.045,0,0,0-7.22-7.22A7.073,7.073,0,0,0,51-7.1,7.089,7.089,0,0,0,58.24.14,7.073,7.073,0,0,0,65.46-7.1ZM55-7.1c0-2.22,1.2-3.62,3.24-3.62,2.02,0,3.24,1.4,3.24,3.62,0,2.18-1.22,3.6-3.24,3.6C56.2-3.5,55-4.92,55-7.1ZM76.68-9.36c0,.96-.54,1.48-1.6,1.48H73.14v-2.94h1.94A1.4,1.4,0,0,1,76.68-9.36ZM69.22-14.1V0h3.92V-5.2h.42L76.36,0h4.38L77.56-5.5a4.093,4.093,0,0,0,3.1-4.08c0-2.52-1.76-4.52-5.26-4.52ZM94.12,0h4.14L93.14-14.1H88.62L83.48,0H87.6l.76-2.3h5ZM92.38-5.3H89.36l1.5-4.56Z" transform="translate(1482 2194)" fill="#fff"/>
      <path id="Path_1" data-name="Path 1" d="M6.444-8.388v7.044L1.8-8.388H.96V0H1.8V-7.056L6.444,0h.84V-8.388ZM12.432,0h.84V-3.864h3.12v-.7h-3.12V-7.692h3.7v-.7H12.432Zm8.556-7.692h2.34V0h.84V-7.692H26.5v-.7H20.988ZM37.6,0h.84V-6.588L41.388,0H42l2.952-6.612V0h.84V-8.28h-.9L41.688-1.1l-3.2-7.176H37.6ZM56.532,0h.888L54.372-8.28h-.948L50.364,0h.888l.732-1.992H55.8Zm-.984-2.688H52.236l1.656-4.536ZM66.516-5.952c0,1.02-.612,1.764-1.98,1.764H62.844V-7.68h1.68C65.94-7.68,66.516-7.008,66.516-5.952ZM62-8.388V0h.84V-3.5h1.548L66.468,0h1.008l-2.16-3.564A2.315,2.315,0,0,0,67.38-5.952c0-1.38-.912-2.436-2.856-2.436ZM76.764,0h1.1l-3.96-4.2,3.924-4.188H76.764L73.128-4.464V-8.388h-.84V0h.84V-3.876Zm9.96-8.4h-4.38V0h4.38V-.7h-3.54v-3.18h3.18v-.7h-3.18V-7.7h3.54Zm4.3.708h2.34V0h.84V-7.692h2.328v-.7H91.02Z" transform="translate(1483 2211)" fill="#6e7f90"/>
    </g>
  </g>
</svg>
